<svg id="Layer_1" enable-background="new 0 0 512 512" height="512" viewBox="0 0 512 512" width="512" xmlns="http://www.w3.org/2000/svg"><g><path d="m448.237 418.892c33.036-41.753 52.765-94.518 52.765-151.894 0-135.311-109.691-245.002-245.002-245.002s-245.002 109.691-245.002 245.002c0 57.376 19.729 110.141 52.765 151.894z" fill="#50dd89"/><path d="m292.607 17.668c-3.236-10.5-12.33-17.668-22.694-17.668-9.277 0-18.55 0-27.827 0-10.364 0-19.458 7.168-22.693 17.668-1.432 4.647-3.591 9.789-6.843 14.876-4.688 7.334.73 16.956 9.434 16.956h68.03c8.704 0 14.123-9.623 9.434-16.956-3.251-5.087-5.409-10.228-6.841-14.876zm-36.607 18.332c-7.387 0-13.375-5.988-13.375-13.375s5.988-13.375 13.375-13.375 13.375 5.988 13.375 13.375-5.988 13.375-13.375 13.375z" fill="#1e9ef4"/><path d="m405.36 52.75h-157.777c-3.354 4.305-6.557 10.183-6.539 16.936.02 7.713 4.243 14.926 12.557 21.459-1.771 1.685-4.477 4.947-4.879 9.437-.359 4.008 1.181 8.041 4.583 12.014-2.396.955-6.033 2.937-8.158 6.664-1.812 3.18-2.157 6.95-1.027 11.224l-31.251 11.357-.254.093-.206.176c-.285.242-6.975 6.031-6.962 13.929.008 4.499 2.172 8.695 6.435 12.48v119.061c-1.317 1.803-5.913 8.806-4.314 16.828 1.144 5.744 5.175 10.624 11.984 14.517v131.189h199.184c10.712-9.528 20.598-19.966 29.502-31.22v-323.268c-.001-23.582-19.296-42.876-42.878-42.876z" fill="#3c58a0"/><path d="m221.05 450.112v-132.07c-22.142-12.042-7.67-29.958-7.67-29.958v-120.25c-14.478-12.25 0-24.583 0-24.583l32.579-11.841c-4.899-14.841 10.041-18.115 10.041-18.115-13.115-13.115 0-22.212 0-22.212-20.44-14.996-13.281-30.101-6.472-38.333h-142.888c-23.582 0-42.876 19.294-42.876 42.876v323.266c8.904 11.254 18.789 21.692 29.502 31.22z" fill="#2a428c"/><path d="m396.429 159.94h-10.931c-7.259 0-13.391-6.133-13.391-13.392v-14.465c0-11.229-6.491-16.408-12.062-18.788h-108.284c-2.232 1.114-4.907 2.968-6.615 5.964-1.812 3.18-2.157 6.95-1.027 11.224l-31.251 11.357-.254.093-.206.176c-.285.242-6.975 6.031-6.962 13.929.008 4.499 2.172 8.695 6.435 12.48v119.061c-1.317 1.803-5.913 8.806-4.314 16.828 1.144 5.744 5.175 10.624 11.984 14.517v188.854l7.641 2.528s.02.008.057.023c9.43 1.103 19.024 1.671 28.751 1.671 62.474 0 119.476-23.396 162.752-61.888v-277.796c-5.808-11.814-22.323-12.376-22.323-12.376z" fill="#e9efff"/><path d="m256 113.295h-149.36c-7.366 0-13.392 6.026-13.392 13.392v323.424c12.492 11.111 26.134 20.955 40.714 29.351l87.088 28.811v-190.231c-22.142-12.042-7.67-29.958-7.67-29.958v-120.25c-14.478-12.25 0-24.583 0-24.583l32.579-11.841c-4.899-14.841 10.041-18.115 10.041-18.115z" fill="#d3dcfb"/><path d="m316.25 46.417h-62.628c-3.634 3.122-12.607 11.975-12.578 23.269.02 7.689 4.219 14.881 12.482 21.398h62.724c12.334 0 22.333-9.999 22.333-22.333s-9.999-22.334-22.333-22.334z" fill="#73c3f9"/><path d="m256 46.417h-60.25c-12.334 0-22.333 9.999-22.333 22.333s9.999 22.333 22.333 22.333h60.25c-30.275-22.212 0-44.666 0-44.666z" fill="#49b1f7"/><g><path d="m256 152.917c-6.448 0-12.562-2.808-16.774-7.703-1.073-1.248-2.496-1.964-3.9-1.964h-21.944c-10.752 0-19.5-8.748-19.5-19.5v-34c0-4.143 3.357-7.5 7.5-7.5s7.5 3.357 7.5 7.5v34c0 2.439 2.061 4.5 4.5 4.5h21.944c5.777 0 11.343 2.617 15.271 7.18 1.36 1.581 3.33 2.487 5.404 2.487s4.044-.906 5.403-2.486c3.929-4.563 9.494-7.181 15.271-7.181h21.944c2.439 0 4.5-2.061 4.5-4.5v-34c0-4.143 3.357-7.5 7.5-7.5s7.5 3.357 7.5 7.5v34c0 10.752-8.748 19.5-19.5 19.5h-21.944c-1.404 0-2.827.716-3.901 1.965-4.212 4.894-10.326 7.702-16.774 7.702z" fill="#6289cc"/></g><path d="m306.223 167.833h-95.989l1.316.713c-.707 2.345-1.756 7.453.677 11.953 1.989 3.682 5.801 6.07 11.327 7.1 7.598 1.415 21.277 18.044 31.142 37.856 12.519 25.144 15.927 48.306 9.116 61.958-.114.228-.238.447-.358.67h1.701s8.207-5.5 19.123 0h21.946c8.182 0 14.876-6.694 14.876-14.876v-90.498c-.001-8.182-6.695-14.876-14.877-14.876z" fill="#50dd89"/><path d="m223.827 186.124c-16.782-3.126-10.446-18.291-10.446-18.291h-7.656c-8.182 0-14.876 6.694-14.876 14.876v90.498c0 8.182 6.694 14.876 14.876 14.876h21.999s7.611-5.167 19.123 0h18.307c15.961-32-24.545-98.833-41.327-101.959z" fill="#38c674"/><path d="m266.071 187.756c-6.443 2.681-13.699 2.681-20.142 0-9.307-3.872-17.832-3.579-24.642-.7.326.093.646.191.986.271-.052 3.357.439 12.133 6.522 17.353 4.434 3.805 10.798 4.844 18.925 3.093l12.06 37.571c-1.649 1.522-4.567 5.347-1.962 11.773 1.649.373 3.204 1.254 4.4 2.655 2.056 2.407 3.829 6.032 3.829 11.376 0 4.366-.386 10.613-.893 16.935h19.123c.908-2.654 1.697-5.576 2.314-8.814 5.414-28.425-.812-27.477 15.972-55.025 13.117-21.529-8.111-48.297-36.492-36.488z" fill="#e9efff"/><ellipse cx="128.525" cy="143.748" fill="#bec8f7" rx="11.998" ry="11.998" transform="matrix(.16 -.987 .987 .16 -33.954 247.588)"/><path d="m182.312 411.562c.871.689 1.821 1.359 2.88 2 0 0-16.567 15.747 2.633 31.301l-9.704 30.919s-5.823 12.995 1.738 24.129c15.181 4.956 31.01 8.482 47.333 10.395v-98.743h-44.88z" fill="#9181f2"/><path d="m133.859 479.428c15.629 9.006 32.35 16.325 49.909 21.731-8.918-11.385-2.647-25.376-2.647-25.376l9.704-30.919c-19.2-15.553-2.633-31.301-2.633-31.301-1.059-.641-2.009-1.311-2.88-2h-51.453z" fill="#7255ce"/><path d="m221.05 318.042h-31.692s-20.466 15.107-1.533 34.04l-9.705 30.918s-11.428 19.375 7.072 30.562h42v-89.379c0-3.378-2.764-6.141-6.142-6.141z" fill="#49b1f7"/><path d="m192.359 318.042h-52.359c-3.378 0-6.142 2.764-6.142 6.142v89.379h54.333c-18.499-11.188-7.071-30.563-7.071-30.563l9.706-30.918c-18.933-18.934 1.533-34.04 1.533-34.04z" fill="#1e9ef4"/><path d="m304.057 346.135h-38.5c-4.648 0-8.417-3.768-8.417-8.417 0-4.648 3.768-8.417 8.417-8.417h38.5c4.648 0 8.417 3.768 8.417 8.417-.001 4.649-3.769 8.417-8.417 8.417z" fill="#bec8f7"/><path d="m362.025 374.219h-96.469c-4.648 0-8.417-3.768-8.417-8.417 0-4.648 3.768-8.417 8.417-8.417h96.469c4.648 0 8.417 3.768 8.417 8.417 0 4.648-3.768 8.417-8.417 8.417z" fill="#d3dcfb"/><path d="m362.025 402.302h-96.469c-4.648 0-8.417-3.768-8.417-8.417 0-4.648 3.768-8.417 8.417-8.417h96.469c4.648 0 8.417 3.768 8.417 8.417 0 4.649-3.768 8.417-8.417 8.417z" fill="#d3dcfb"/><path d="m304.057 440.656h-38.5c-4.648 0-8.417-3.768-8.417-8.417 0-4.648 3.768-8.417 8.417-8.417h38.5c4.648 0 8.417 3.768 8.417 8.417-.001 4.649-3.769 8.417-8.417 8.417z" fill="#bec8f7"/><path d="m362.025 468.74h-96.469c-4.648 0-8.417-3.768-8.417-8.417 0-4.648 3.768-8.417 8.417-8.417h96.469c4.648 0 8.417 3.768 8.417 8.417 0 4.648-3.768 8.417-8.417 8.417z" fill="#d3dcfb"/><path d="m362.025 479.99h-96.469c-4.648 0-8.417 3.768-8.417 8.417 0 4.648 3.768 8.417 8.417 8.417h75.5c9.735-3.604 19.174-7.815 28.28-12.575-1.448-2.543-4.176-4.259-7.311-4.259z" fill="#d3dcfb"/><g><path d="m175.817 385.196c-1.92 0-3.839-.732-5.304-2.196l-14.12-14.12c-2.929-2.93-2.929-7.678 0-10.607 2.93-2.928 7.678-2.928 10.607 0l8.816 8.817 15.009-15.008c2.929-2.928 7.678-2.929 10.606.001 2.929 2.929 2.929 7.678-.001 10.607l-20.31 20.31c-1.464 1.464-3.384 2.196-5.303 2.196z" fill="#d3dcfb"/></g><g><path d="m175.817 477.978c-1.919 0-3.839-.732-5.304-2.196l-14.12-14.12c-2.929-2.93-2.929-7.678 0-10.607 2.93-2.928 7.678-2.928 10.607 0l8.816 8.817 15.008-15.009c2.93-2.928 7.678-2.928 10.607 0 2.929 2.93 2.929 7.678 0 10.607l-20.311 20.311c-1.464 1.465-3.384 2.197-5.303 2.197z" fill="#d3dcfb"/></g><path d="m414.026 157.215-39.194-39.194c-2.789-2.789-6.915-4.726-11.409-4.726h-13.232s19.915 1.121 19.915 20.788v14.465c0 7.259 6.132 13.392 13.391 13.392h10.931s24.323.81 24.323 21.56v-14.877c.001-4.467-1.916-8.6-4.725-11.408z" fill="#d3dcfb"/><path d="m223.827 186.124c-15.656 4.833-23.726 22.797-14.389 38.12 16.784 27.547 10.558 26.6 15.972 55.025.617 3.238 1.407 6.16 2.314 8.814h19.123c-.507-6.323-.894-12.569-.894-16.935 0-5.345 1.773-8.969 3.829-11.376 2.558-2.994 6.746-3.629 10.008-1.924-4.236-8.403 1.733-11.984 1.733-11.984l-12.796-39.864c-27.184 6.722-24.92-19.655-24.9-19.876z" fill="#d3dcfb"/><path d="m275.057 217.784h-10.034c-.232 0-.452-.047-.655-.129-3.039 1.09-5.217 3.988-5.217 7.402s2.178 6.312 5.218 7.402c.203-.082.423-.129.655-.129h10.034c.966 0 1.75-.784 1.75-1.75v-11.046c-.001-.967-.785-1.75-1.751-1.75z" fill="#73c3f9"/><path d="m260.109 225.057c0-3.37 2.169-6.228 5.184-7.273h-.27c-.966 0-1.75-.783-1.75-1.75v-10.034c0-.967-.784-1.75-1.75-1.75h-11.046c-.966 0-1.75.783-1.75 1.75v10.034c0 .967-.784 1.75-1.75 1.75h-10.034c-.966 0-1.75.784-1.75 1.75v11.046c0 .966.783 1.75 1.75 1.75h10.034c.966 0 1.75.783 1.75 1.75v10.034c0 .966.783 1.75 1.75 1.75h11.046c.966 0 1.75-.784 1.75-1.75v-10.034c0-.967.783-1.75 1.75-1.75h.27c-3.016-1.045-5.184-3.903-5.184-7.273z" fill="#49b1f7"/></g></svg>